<!-- by TradingView --><svg width="56" height="56" viewBox="0 0 56 56" fill="none" xmlns="http://www.w3.org/2000/svg">
<rect width="56" height="56" fill="#28468F"/>
<path fill-rule="evenodd" clip-rule="evenodd" d="M3 26H4H11L12 23H13.5L12.5 26H14L15 23H16.5L15.5 26H18H18.5L16.5 32H15L16.5 27.5H15L13 34H11.5L13.5 27.5H12L9.5 34H8L10.5 27.5H8.5H7.5L3 26ZM18 26C17.4477 26 17 25.5523 17 25C17 24.4477 17.4477 24 18 24C18.5523 24 19 24.4477 19 25C19 25.5523 18.5523 26 18 26ZM48 23H50L47 32H45L48 23ZM24.5 26H28L27.5 27.5H26L24.3 32H22.5L24.5 26ZM39 26H33.5L33 28L33.5 27.5H38.5L37 32H39L40.5 27.5H44L43.5 28.5H41L39.8 32H44.5L46.5 26H41L41.5 24H39.5L39 26ZM33.5 28L33 28.5L35 30H36.5V29.5L35 28H33.5ZM31.5 32L32 30.5H36.5L37 30L36.5 32H31.5ZM42.5 29.5H43L42.5 30.5H42L42.5 29.5ZM33 26H28.5L26.5 32H31L33 26ZM30.5 27.5H29.5L28.5 30.5H29.5L30.5 27.5ZM19 26H22L22.8 24H24.5L21.5 32H17L19 26ZM20 27.5H21L20 30.5H19L20 27.5Z" fill="#FAFBF5"/>
</svg>
